HIERARCHY
ROOT root
{
	OFFSET 0.000000 0.000000 0.000000
	CHANNELS 6 Xposition Yposition Zposition Zrotation Yrotation Xrotation
	JOINT lhip
	{
		OFFSET 0.058581 -0.082280 -0.017664
		CHANNELS 3 Zrotation Yrotation Xrotation
		JOINT lknee
		{
			OFFSET 0.043451 -0.386469 0.008037
			CHANNELS 3 Zrotation Yrotation Xrotation
			JOINT lankle
			{
				OFFSET -0.014790 -0.426874 -0.037428
				CHANNELS 3 Zrotation Yrotation Xrotation
				JOINT ltoe
				{
					OFFSET 0.041054 -0.060286 0.122042
					CHANNELS 3 Zrotation Yrotation Xrotation
					End Site
					{
						OFFSET 0.000000 0.000000 0.000000
					}
				}
			}
		}
	}
	JOINT rhip
	{
		OFFSET -0.060310 -0.090513 -0.013543
		CHANNELS 3 Zrotation Yrotation Xrotation
		JOINT rknee
		{
			OFFSET -0.043257 -0.383688 -0.004843
			CHANNELS 3 Zrotation Yrotation Xrotation
			JOINT rankle
			{
				OFFSET 0.019056 -0.420046 -0.034562
				CHANNELS 3 Zrotation Yrotation Xrotation
				JOINT rtoe
				{
					OFFSET -0.034840 -0.062106 0.130323
					CHANNELS 3 Zrotation Yrotation Xrotation
					End Site
					{
						OFFSET 0.000000 0.000000 0.000000
					}
				}
			}
		}
	}
	JOINT lowerback
	{
		OFFSET 0.004439 0.124404 -0.038385
		CHANNELS 3 Zrotation Yrotation Xrotation
		JOINT upperback
		{
			OFFSET 0.004488 0.137956 0.026820
			CHANNELS 3 Zrotation Yrotation Xrotation
			JOINT chest
			{
				OFFSET -0.002265 0.056032 0.002855
				CHANNELS 3 Zrotation Yrotation Xrotation
				JOINT lowerneck
				{
					OFFSET -0.013390 0.211636 -0.033468
					CHANNELS 3 Zrotation Yrotation Xrotation
					JOINT upperneck
					{
						OFFSET 0.010113 0.088937 0.050410
						CHANNELS 3 Zrotation Yrotation Xrotation
						End Site
						{
							OFFSET 0.000000 0.000000 0.000000
						}
					}
				}
				JOINT lclavicle
				{
					OFFSET 0.071702 0.114000 -0.018898
					CHANNELS 3 Zrotation Yrotation Xrotation
					JOINT lshoulder
					{
						OFFSET 0.122921 0.045205 -0.019046
						CHANNELS 3 Zrotation Yrotation Xrotation
						JOINT lelbow
						{
							OFFSET 0.255332 -0.015649 -0.022946
							CHANNELS 3 Zrotation Yrotation Xrotation
							JOINT lwrist
							{
								OFFSET 0.265709 0.012698 -0.007375
								CHANNELS 3 Zrotation Yrotation Xrotation
								End Site
								{
									OFFSET 0.000000 0.000000 0.000000
								}
							}
						}
					}
				}
				JOINT rclavicle
				{
					OFFSET -0.082954 0.112472 -0.023707
					CHANNELS 3 Zrotation Yrotation Xrotation
					JOINT rshoulder
					{
						OFFSET -0.113228 0.046853 -0.008472
						CHANNELS 3 Zrotation Yrotation Xrotation
						JOINT relbow
						{
							OFFSET -0.260127 -0.014369 -0.031269
							CHANNELS 3 Zrotation Yrotation Xrotation
							JOINT rwrist
							{
								OFFSET -0.269108 0.006794 -0.006027
								CHANNELS 3 Zrotation Yrotation Xrotation
								End Site
								{
									OFFSET 0.000000 0.000000 0.000000
								}
							}
						}
					}
				}
			}
		}
	}
}
MOTION
Frames: 5
Frame Time: 0.033333
0.542273 -0.205883 0.837684 88.065282 -4.941467 87.380785 22.871398 2.706017 -29.766818 -9.023227 -0.888041 44.947617 -10.628862 -5.598619 -16.409788 0.000000 -0.000000 0.000000 -12.878231 -6.883931 -12.978970 -3.779036 -7.028615 73.893462 4.570494 1.948830 -37.098805 0.000000 -0.000000 0.000000 -5.036629 7.436347 33.223115 -3.879647 -0.349958 0.849472 -2.947445 4.296949 -2.013593 -9.144378 9.563519 -14.539211 2.193623 -4.104741 7.551413 -10.057888 -13.503980 -16.596344 -47.474934 -39.975940 3.226879 146.018840 -50.333541 -117.564567 17.318848 -16.075633 -23.622700 19.298208 13.545495 -3.778473 44.596203 15.433029 1.963747 -140.459077 48.841443 -117.526827 -3.716377 22.699512 -17.123579 
0.561009 -0.219030 0.842779 92.746299 -3.914759 87.155816 23.797368 -1.889361 -28.839691 -9.539757 -5.609867 42.255052 -11.676802 -4.294519 -17.217414 0.000000 -0.000000 0.000000 -14.179926 -8.443555 -11.929055 -1.323387 -9.747864 76.306892 8.911363 7.872310 -26.847503 0.000000 -0.000000 0.000000 -5.230193 7.631463 31.341705 -2.425053 -2.241437 1.281170 -2.518537 2.567155 -1.952730 -6.041082 8.419220 -13.556927 3.563876 -4.821969 7.198657 -11.250754 -12.921279 -15.919697 -49.371986 -39.087654 5.168925 146.360973 -50.747337 -118.086090 15.725455 -16.103062 -23.181986 19.343066 10.033321 -5.861918 44.561478 11.782495 1.912655 -142.050938 46.921374 -118.366805 -1.271890 22.592593 -17.161184 
0.575628 -0.239392 0.865110 95.899980 -2.557295 87.249429 25.080267 -3.766023 -26.862353 -7.751948 -7.535444 36.333226 -13.668981 -4.298725 -11.755473 0.000000 -0.000000 0.000000 -14.787405 -8.307825 -15.269093 0.080346 -11.847295 79.072062 15.732413 12.725407 -5.525575 0.000000 -0.000000 0.000000 -5.731383 7.606966 31.109889 -0.832576 -2.378396 1.534794 -1.369352 1.480786 -2.499865 -4.170706 7.097534 -13.344459 5.186340 -5.956472 4.892474 -12.537209 -12.112914 -15.188225 -49.108064 -38.379582 5.904321 144.637736 -50.300129 -118.267745 15.323075 -16.873385 -21.722594 19.881579 6.258137 -6.842613 44.230398 8.641443 1.930477 -144.317529 44.808811 -120.087518 -1.573697 22.973779 -15.664852 
0.586363 -0.260908 0.890738 98.749285 -1.190145 87.321681 26.174691 -3.552497 -24.584790 -6.110593 -6.377409 30.181847 -14.947483 -1.767298 -6.534035 0.000000 -0.000000 0.000000 -15.997011 -8.558457 -19.799371 -0.983761 -14.382991 80.701059 13.841529 5.658279 -6.588106 0.000000 -0.000000 0.000000 -5.335315 5.587911 31.302423 0.776447 -2.561082 1.574010 -0.542969 0.425959 -2.473277 -2.062876 6.688330 -13.902719 5.384783 -5.752186 4.469405 -13.466270 -10.315130 -12.928703 -45.902480 -36.891381 2.742686 142.167449 -50.395808 -117.146212 16.991959 -16.773061 -23.116149 21.016956 4.150802 -6.403769 44.193513 6.711156 3.038318 -144.890889 44.567751 -120.557306 -0.547588 24.041372 -14.296909 
0.594980 -0.275982 0.910188 100.715976 0.358394 87.664948 25.163820 -1.199660 -23.494532 -3.594539 -2.451933 32.072244 -12.447839 2.020850 -8.355747 0.000000 -0.000000 0.000000 -18.106200 -10.839116 -25.327349 -5.893832 -16.093505 79.500928 7.988374 -3.904281 -11.459176 0.000000 -0.000000 0.000000 -2.593780 2.627922 32.359514 1.922082 -2.585109 -1.023296 0.681897 -0.519627 -1.244468 -0.604964 3.984606 -14.084381 5.297763 -2.582472 3.801747 -15.117279 -7.211248 -10.953321 -45.181743 -34.091266 -0.689485 140.530934 -52.840914 -115.678746 17.791539 -15.827907 -25.415655 20.708776 1.563428 -5.969365 43.627232 6.266622 2.662604 -145.265457 46.897433 -121.039966 0.501224 24.160371 -11.728898 
